#!OML:ASF H:\LiuWeirdWalks\Patient Classification 1\Patient 1\Session 1\male.ASF
:FULLY-SPECIFIED
:DEGREES
643
root -0.7877 18.3746 -15.9022 4.87329 5.52368 0.936585
lowerback 10.3329 -1.32969 4.17261
upperback 0.411447 -0.946573 5.69327
thorax -5.35266 -0.494441 3.77572
lowerneck -20.1699 1.87451 9.68995
upperneck 15.5266 3.02535 -16.3617
head 8.59446 0.328222 -6.89466
rclavicle -1.47101e-014 -2.38542e-014
rhumerus -10.2334 -28.7974 -5.16633
rradius 31.5485
rwrist 1.85677
rhand -19.9812 -6.53068
rfingers 7.12502
rthumb 6.35799 -36.4153
lclavicle -1.47101e-014 -2.38542e-014
lhumerus -24.8272 24.6044 21.8691
lradius 36.6491
lwrist 8.45586
lhand -18.7471 -2.7595
lfingers 7.12502
lthumb 7.54922 27.0858
rfemur -5.76488 -4.4921 20.47
rtibia 26.8517
rfoot -11.2126 -15.569
rtoes -12.1667
lfemur -18.9672 3.08983 -13.0736
ltibia 37.2971
lfoot -7.29534 13.336
ltoes -17.2812
644
root -0.7805 18.3741 -15.8529 4.80713 5.55923 0.799448
lowerback 10.3554 -1.33756 4.14212
upperback 0.442229 -0.963955 5.64297
thorax -5.3323 -0.502843 3.74163
lowerneck -20.0918 1.89256 9.78896
upperneck 15.4925 3.02708 -16.3841
head 8.5708 0.336696 -6.91723
rclavicle 5.96354e-015 -5.08889e-014
rhumerus -10.2402 -28.802 -5.14312
rradius 31.5144
rwrist 1.96529
rhand -19.9687 -6.54359
rfingers 7.12502
rthumb 6.37003 -36.4278
lclavicle 5.96354e-015 -5.08889e-014
lhumerus -24.8458 24.6517 21.9724
lradius 36.6512
lwrist 8.41832
lhand -18.7769 -2.7657
lfingers 7.12502
lthumb 7.52049 27.0806
rfemur -5.45856 -4.4993 20.6118
rtibia 26.6885
rfoot -11.1001 -15.6608
rtoes -12.3141
lfemur -19.3079 3.00524 -13.0111
ltibia 36.4158
lfoot -7.40431 13.6232
ltoes -17.2297
645
root -0.772104 18.3737 -15.8034 4.74118 5.59644 0.647987
lowerback 10.379 -1.3441 4.12375
upperback 0.469857 -0.977443 5.59851
thorax -5.31625 -0.509553 3.70652
lowerneck -20.0268 1.93221 9.95566
upperneck 15.48 3.05046 -16.4543
head 8.56192 0.354044 -6.9679
rclavicle 2.74323e-014 1.27222e-014
rhumerus -10.2466 -28.7926 -5.12668
rradius 31.4835
rwrist 2.03865
rhand -19.9929 -6.5653
rfingers 7.12502
rthumb 6.3467 -36.4502
lclavicle 2.74323e-014 1.27222e-014
lhumerus -24.8581 24.7049 22.0838
lradius 36.6404
lwrist 8.38145
lhand -18.7871 -2.82903
lfingers 7.12502
lthumb 7.51069 27.0176
rfemur -5.14872 -4.51208 20.7646
rtibia 26.5167
rfoot -10.9757 -15.7419
rtoes -12.4761
lfemur -19.6432 2.89186 -12.9322
ltibia 35.5276
lfoot -7.48454 13.9127
ltoes -17.1667
646
root -0.762384 18.3736 -15.7538 4.68072 5.64357 0.495799
lowerback 10.4075 -1.35103 4.10205
upperback 0.480533 -0.98967 5.56444
thorax -5.32062 -0.515493 3.68494
lowerneck -19.981 1.95558 10.0982
upperneck 15.4995 3.05807 -16.5112
head 8.56422 0.362475 -7.01326
rclavicle 2.38542e-015 1.59028e-015
rhumerus -10.2507 -28.7835 -5.10042
rradius 31.4467
rwrist 2.13232
rhand -20.0109 -6.56011
rfingers 7.12502
rthumb 6.32929 -36.4456
lclavicle 2.38542e-015 1.59028e-015
lhumerus -24.8789 24.7461 22.2132
lradius 36.6263
lwrist 8.3698
lhand -18.8008 -2.88935
lfingers 7.12502
lthumb 7.49747 26.9578
rfemur -4.83966 -4.54743 20.9104
rtibia 26.3416
rfoot -10.8429 -15.7955
rtoes -12.6557
lfemur -19.9798 2.75236 -12.855
ltibia 34.638
lfoot -7.52946 14.1986
ltoes -17.14
647
root -0.751549 18.3743 -15.7044 4.62887 5.69986 0.328678
lowerback 10.4421 -1.36018 4.08719
upperback 0.478759 -1.00184 5.5446
thorax -5.34155 -0.521435 3.6753
lowerneck -19.9017 1.96743 10.2089
upperneck 15.5112 3.05454 -16.5378
head 8.55497 0.368102 -7.04224
rclavicle -1.23246e-014 -4.6118e-014
rhumerus -10.2496 -28.7412 -5.07389
rradius 31.4166
rwrist 2.17517
rhand -20.0492 -6.55058
rfingers 7.12502
rthumb 6.29231 -36.4371
lclavicle -1.23246e-014 -4.6118e-014
lhumerus -24.9099 24.7672 22.355
lradius 36.6136
lwrist 8.41088
lhand -18.8212 -2.92003
lfingers 7.12502
lthumb 7.47774 26.9278
rfemur -4.54198 -4.58982 21.0679
rtibia 26.166
rfoot -10.6964 -15.8333
rtoes -12.8479
lfemur -20.3338 2.59054 -12.7634
ltibia 33.7537
lfoot -7.52866 14.481
ltoes -17.1153
648
root -0.73917 18.3757 -15.6554 4.58539 5.76351 0.159987
lowerback 10.4899 -1.37121 4.07311
upperback 0.466842 -1.01401 5.53561
thorax -5.3805 -0.527297 3.67762
lowerneck -19.906 1.98228 10.3071
upperneck 15.5796 3.05669 -16.5514
head 8.58015 0.372759 -7.0677
rclavicle 6.36111e-015 5.24792e-014
rhumerus -10.2386 -28.6706 -5.05545
rradius 31.3988
rwrist 2.16787
rhand -20.1026 -6.54676
rfingers 7.12502
rthumb 6.24078 -36.4348
lclavicle 6.36111e-015 5.24792e-014
lhumerus -24.9312 24.8301 22.5098
lradius 36.5715
lwrist 8.42141
lhand -18.8675 -2.90475
lfingers 7.12502
lthumb 7.433 26.9447
rfemur -4.25761 -4.64857 21.2182
rtibia 25.9932
rfoot -10.5335 -15.8454
rtoes -13.061
lfemur -20.7004 2.40287 -12.6755
ltibia 32.879
lfoot -7.48537 14.7818
ltoes -17.0808
649
root -0.725084 18.3777 -15.6066 4.55037 5.82601 -0.00901889
lowerback 10.5479 -1.38003 4.06002
upperback 0.445595 -1.021 5.53879
thorax -5.43502 -0.530499 3.69228
lowerneck -19.9228 1.97033 10.3145
upperneck 15.7017 3.0393 -16.4955
head 8.61973 0.36808 -7.05653
rclavicle -1.55052e-014 1.59028e-014
rhumerus -10.2248 -28.585 -5.03685
rradius 31.3928
rwrist 2.14609
rhand -20.1463 -6.52188
rfingers 7.12502
rthumb 6.19861 -36.4112
lclavicle -1.55052e-014 1.59028e-014
lhumerus -24.9524 24.9016 22.6792
lradius 36.5125
lwrist 8.44973
lhand -18.9171 -2.8551
lfingers 7.12502
lthumb 7.38517 26.996
rfemur -3.99025 -4.70731 21.3597
rtibia 25.828
rfoot -10.3474 -15.8379
rtoes -13.302
lfemur -21.0797 2.20217 -12.5949
ltibia 32.0195
lfoot -7.41044 15.1133
ltoes -17.0547
650
root -0.709052 18.3801 -15.5576 4.51633 5.88045 -0.171852
lowerback 10.6058 -1.38271 4.04521
upperback 0.43193 -1.02018 5.54866
thorax -5.48165 -0.52968 3.71361
lowerneck -19.9973 1.96532 10.3191
upperneck 15.8374 3.02915 -16.4379
head 8.67548 0.364448 -7.04506
rclavicle -1.59028e-015 -6.36111e-014
rhumerus -10.2161 -28.5116 -5.02251
rradius 31.4009
rwrist 2.09925
rhand -20.2227 -6.53986
rfingers 7.12502
rthumb 6.12479 -36.4313
lclavicle -1.59028e-015 -6.36111e-014
lhumerus -24.9504 24.9892 22.8674
lradius 36.4329
lwrist 8.47377
lhand -18.9391 -2.79541
lfingers 7.12502
lthumb 7.36394 27.0564
rfemur -3.73483 -4.76985 21.482
rtibia 25.6767
rfoot -10.1417 -15.8051
rtoes -13.5714
lfemur -21.4591 1.99591 -12.5309
ltibia 31.1771
lfoot -7.30373 15.4869
ltoes -17.0014
651
root -0.690702 18.3822 -15.5082 4.47935 5.92729 -0.317302
lowerback 10.6666 -1.38138 4.02398
upperback 0.421446 -1.01467 5.56106
thorax -5.52654 -0.526335 3.74056
lowerneck -20.142 1.9728 10.3356
upperneck 15.9949 3.03333 -16.3972
head 8.75425 0.363717 -7.04257
rclavicle -7.95139e-016 2.38542e-014
rhumerus -10.2083 -28.4997 -5.01543
rradius 31.4086
rwrist 2.09933
rhand -20.2875 -6.53585
rfingers 7.12502
rthumb 6.06227 -36.4291
lclavicle -7.95139e-016 2.38542e-014
lhumerus -24.9408 25.0932 23.0574
lradius 36.3298
lwrist 8.4747
lhand -18.9183 -2.77756
lfingers 7.12502
lthumb 7.38403 27.0736
rfemur -3.4851 -4.83529 21.5706
rtibia 25.5484
rfoot -9.93016 -15.7489
rtoes -13.8581
lfemur -21.827 1.79981 -12.4996
ltibia 30.3522
lfoot -7.19508 15.9066
ltoes -16.9622
652
root -0.670252 18.3841 -15.4581 4.43137 5.95393 -0.465782
lowerback 10.729 -1.3714 4.01017
upperback 0.420745 -0.996853 5.5817
thorax -5.56242 -0.516965 3.76994
lowerneck -20.2383 1.96562 10.351
upperneck 16.0801 3.01499 -16.3687
head 8.79686 0.354037 -7.04299
rclavicle -2.50469e-014 1.43125e-014
rhumerus -10.2228 -28.4718 -5.00545
rradius 31.4428
rwrist 2.07417
rhand -20.3614 -6.56109
rfingers 7.12502
rthumb 5.99094 -36.4564
lclavicle -2.50469e-014 1.43125e-014
lhumerus -24.9231 25.2062 23.2522
lradius 36.2159
lwrist 8.44503
lhand -18.8587 -2.76969
lfingers 7.12502
lthumb 7.44154 27.0794
rfemur -3.24027 -4.88626 21.65
rtibia 25.4523
rfoot -9.70744 -15.6772
rtoes -14.1701
lfemur -22.1723 1.64199 -12.4781
ltibia 29.5415
lfoot -7.0817 16.3478
ltoes -16.9284
653
root -0.6477 18.3861 -15.4072 4.37864 5.95742 -0.609838
lowerback 10.791 -1.3585 3.99288
upperback 0.424261 -0.975554 5.60888
thorax -5.59357 -0.505695 3.80756
lowerneck -20.3276 1.97491 10.3996
upperneck 16.126 3.01382 -16.3797
head 8.82915 0.35148 -7.05979
rclavicle -1.98785e-015 9.54166e-015
rhumerus -10.2199 -28.4803 -5.01739
rradius 31.4709
rwrist 2.08131
rhand -20.4164 -6.55453
rfingers 7.12502
rthumb 5.93777 -36.4513
lclavicle -1.98785e-015 9.54166e-015
lhumerus -24.9158 25.3635 23.4182
lradius 36.0726
lwrist 8.35501
lhand -18.7682 -2.82916
lfingers 7.12502
lthumb 7.52893 27.0168
rfemur -3.01213 -4.92619 21.7106
rtibia 25.3996
rfoot -9.48876 -15.5834
rtoes -14.4946
lfemur -22.4938 1.52114 -12.4744
ltibia 28.7412
lfoot -6.96882 16.7934
ltoes -16.8801
654
root -0.623215 18.388 -15.3558 4.32589 5.93625 -0.746094
lowerback 10.8489 -1.34118 3.96942
upperback 0.425878 -0.949172 5.63973
thorax -5.62454 -0.491725 3.85169
lowerneck -20.3834 1.96688 10.3917
upperneck 16.1782 3.00018 -16.3494
head 8.85387 0.344755 -7.05252
rclavicle -1.31198e-014 1.11319e-014
rhumerus -10.2058 -28.4797 -5.05141
rradius 31.4984
rwrist 2.09039
rhand -20.4502 -6.55952
rfingers 7.12502
rthumb 5.90521 -36.4572
lclavicle -1.31198e-014 1.11319e-014
lhumerus -24.9213 25.5335 23.5567
lradius 35.9186
lwrist 8.24257
lhand -18.6794 -2.90301
lfingers 7.12502
lthumb 7.61457 26.9399
rfemur -2.80687 -4.95213 21.7496
rtibia 25.3939
rfoot -9.27596 -15.4681
rtoes -14.8245
lfemur -22.7934 1.44246 -12.4901
ltibia 27.9496
lfoot -6.85977 17.202
ltoes -16.8225
655
root -0.597176 18.3901 -15.3039 4.27967 5.89571 -0.865869
lowerback 10.8991 -1.32157 3.92596
upperback 0.425322 -0.922716 5.67153
thorax -5.65316 -0.477197 3.90791
lowerneck -20.3497 1.94291 10.348
upperneck 16.1686 2.97125 -16.3013
head 8.83832 0.334554 -7.02952
rclavicle 1.11319e-014 -6.36111e-015
rhumerus -10.1767 -28.4563 -5.10946
rradius 31.5218
rwrist 2.08802
rhand -20.4579 -6.55249
rfingers 7.12502
rthumb 5.89772 -36.4504
lclavicle 1.11319e-014 -6.36111e-015
lhumerus -24.9459 25.6694 23.6694
lradius 35.7829
lwrist 8.1969
lhand -18.6366 -2.92867
lfingers 7.12502
lthumb 7.65588 26.9127
rfemur -2.63445 -4.96368 21.7611
rtibia 25.4408
rfoot -9.06293 -15.3381
rtoes -15.1773
lfemur -23.0789 1.39743 -12.5315
ltibia 27.1641
lfoot -6.75144 17.5469
ltoes -16.7367
656
root -0.569811 18.3923 -15.2515 4.24066 5.82993 -0.977723
lowerback 10.9528 -1.29515 3.87373
upperback 0.420447 -0.887894 5.70195
thorax -5.68862 -0.45835 3.96656
lowerneck -20.3523 1.92327 10.3086
upperneck 16.2015 2.95019 -16.2585
head 8.84509 0.325847 -7.01097
rclavicle 1.82882e-014 -9.54166e-015
rhumerus -10.1458 -28.3854 -5.19042
rradius 31.545
rwrist 2.04642
rhand -20.4732 -6.55827
rfingers 7.12502
rthumb 5.88292 -36.4566
lclavicle 1.82882e-014 -9.54166e-015
lhumerus -24.9633 25.8031 23.7523
lradius 35.6428
lwrist 8.15595
lhand -18.6541 -2.89976
lfingers 7.12502
lthumb 7.63907 26.9423
rfemur -2.49612 -4.95183 21.757
rtibia 25.5364
rfoot -8.86043 -15.2008
rtoes -15.5218
lfemur -23.3505 1.34814 -12.5772
ltibia 26.3881
lfoot -6.63547 17.8305
ltoes -16.6101
